<svg xmlns="http://www.w3.org/2000/svg" width="256.367" height="97.026" viewBox="0 0 256.367 97.026"><defs><style>.a{fill:#dde2e8;}.a,.c,.d,.e,.f,.g{fill-rule:evenodd;}.b{fill:#2088e5;}.c{fill:#ccd3db;}.d{fill:#f6f8f9;}.e{fill:#fcf797;}.f{fill:#ffff78;}.g{fill:#fcfcc8;}.h,.i{isolation:isolate;}.i{fill:#5e6774;font-size:66px;font-family:PTSans-Bold, PT Sans;font-weight:700;}</style></defs><g transform="translate(-161.351 -14.195)"><g transform="translate(367.899 14.195)"><g transform="translate(1.108 13.739)"><path class="a" d="M136.361,92.406l-12.96,0,.009,26.8c-11.447,2.367-19.617,13.977-17.644,25.1,4.705,26.538,44.819,24.735,48.214-.4,1.06-7.846-2.134-14.654-7.706-19.482a15.293,15.293,0,0,0-.666-9.29,16.879,16.879,0,0,0-9.172-9.219l-.149-.063.075-13.439ZM143.79,122.5a16.107,16.107,0,0,0-3.383-2.061c-1.929-.724-2.529-.617-4.193-1.658l.056-10.032a14.086,14.086,0,0,1,6.708,7.28A12.9,12.9,0,0,1,143.79,122.5Z" transform="translate(-105.471 -90.252)"/><path class="b" d="M115,313.286c0,11.882,10,21.4,22.338,21.4s22.338-9.519,22.338-21.4c0,0-7.081,4.848-14.293,5.366-5.334.383-11.669-3.574-15.274-5.381C123.513,309.964,115,313.286,115,313.286Z" transform="translate(-112.992 -263.418)"/><path class="c" d="M179.389,84.347l12.96,0c2.233.1,2.508.32,2.651-1.553-2.069-.835-16.856-.826-18.592.188C176.628,84.809,177.432,84.483,179.389,84.347Z" transform="translate(-161.458 -82.196)"/></g><path class="d" d="M129.219,300.6c-.311.35-2.665,5.354-.621,4.786.711-.2.962-1.779,1.194-2.5C130.144,301.8,130.9,300.569,129.219,300.6Z" transform="translate(-121.964 -240.837)"/><path class="d" d="M152.032,365.256c.311.349,2.665,5.354.621,4.786-.711-.2-.962-1.778-1.194-2.5C151.107,366.454,150.354,365.222,152.032,365.256Z" transform="translate(-140.283 -291.866)"/><path class="e" d="M270.777,106.183l1.433,3.362,3.882.229-3,2.306.966,3.5-3.285-1.937-3.285,1.937.966-3.5-3-2.306,3.882-.229,1.433-3.362Z" transform="translate(-230.637 -87.389)"/><path class="f" d="M107.265,143.268l1.9,4.462,5.152.3-3.976,3.061,1.282,4.649-4.36-2.57-4.359,2.57,1.282-4.649-3.976-3.061,5.152-.3,1.9-4.462Z" transform="translate(-100.212 -116.659)"/><path class="g" d="M176.049,17l1.162,2.725,3.146.185-2.428,1.869.783,2.839-2.662-1.57-2.662,1.57.783-2.839-2.428-1.869,3.146-.185L176.049,17Z" transform="translate(-156.667 -17)"/></g><g transform="translate(9.351 154.221)"><g class="h" transform="translate(152 -120)"><text class="i" transform="translate(0 59)"><tspan x="0" y="0">rpg</tspan><tspan class="b" y="0">Lab</tspan></text></g></g></g></svg>