<svg xmlns="http://www.w3.org/2000/svg" width="694.511" height="262.252" viewBox="0 0 694.511 262.252"><g transform="translate(-161.351 -14.195)"><g transform="translate(720.901 14.195)"><g transform="translate(3.003 37.22)"><path d="M189.154,92.412l-35.11-.009.024,72.59c-31.01,6.413-53.144,37.865-47.8,68,12.746,71.892,121.418,67.009,130.614-1.082,2.871-21.256-5.781-39.7-20.876-52.777a41.43,41.43,0,0,0-1.8-25.167,45.726,45.726,0,0,0-24.848-24.974c-.134-.058-.269-.115-.4-.171l.2-36.406Zm20.126,81.529c-3.478-2.418-6.048-4.414-9.165-5.582-5.227-1.962-6.851-1.672-11.359-4.493l.151-27.177a38.159,38.159,0,0,1,18.173,19.721A34.944,34.944,0,0,1,209.28,173.941Z" transform="translate(-105.471 -86.576)" fill="#dde2e8" fill-rule="evenodd"/><path d="M115,315.817c0,32.189,27.094,57.977,60.515,57.977s60.515-25.787,60.515-57.977c0,0-19.183,13.133-38.72,14.537-14.45,1.038-31.613-9.681-41.378-14.577C138.061,306.818,115,315.817,115,315.817Z" transform="translate(-109.56 -180.722)" fill="#2088e5"/><path d="M184.485,88.023l35.108.009c6.05.275,6.795.866,7.181-4.207-5.6-2.262-45.663-2.238-50.367.51C177,89.275,179.183,88.391,184.485,88.023Z" transform="translate(-135.91 -82.196)" fill="#ccd3db" fill-rule="evenodd"/></g><path d="M131.692,300.6c-.843.947-7.219,14.5-1.682,12.966,1.927-.535,2.605-4.818,3.235-6.771C134.2,303.847,136.238,300.513,131.692,300.6Z" transform="translate(-112.038 -138.695)" fill="#f6f8f9" fill-rule="evenodd"/><path d="M153.825,365.258c.842.947,7.219,14.5,1.682,12.964-1.927-.536-2.6-4.818-3.235-6.771C151.32,368.5,149.279,365.166,153.825,365.258Z" transform="translate(-121.998 -166.438)" fill="#f6f8f9" fill-rule="evenodd"/><path d="M279.861,106.183l3.883,9.108,10.516.619-8.117,6.248,2.616,9.491-8.9-5.246-8.9,5.246,2.617-9.491-8.117-6.248,10.517-.619,3.883-9.108Z" transform="translate(-171.121 -55.269)" fill="#fcf797" fill-rule="evenodd"/><path d="M119.32,143.268l5.153,12.087,13.956.821-10.771,8.292,3.472,12.595L119.32,170.1l-11.81,6.962,3.472-12.595-10.771-8.292,13.956-.821,5.153-12.087Z" transform="translate(-100.212 -71.182)" fill="#ffff78" fill-rule="evenodd"/><path d="M183.411,17l3.147,7.382,8.524.5L188.5,29.948l2.121,7.692-7.213-4.252L176.2,37.639l2.121-7.692-6.578-5.064,8.523-.5L183.411,17Z" transform="translate(-130.905 -17)" fill="#fcfcc8" fill-rule="evenodd"/></g><g transform="translate(161.351 68.447)"><g style="isolation:isolate"><text transform="translate(0 159)" fill="#5e6774" font-size="177" font-family="PTSans-Bold, PT Sans" font-weight="700" style="isolation:isolate"><tspan x="0" y="0">rpg</tspan><tspan y="0" fill="#2088e5">Lab</tspan></text></g></g></g></svg>